<svg width="1280" height="49" viewBox="0 0 1280 49" fill="none" xmlns="http://www.w3.org/2000/svg">
<line y1="0.5" x2="1280" y2="0.5" stroke="#E5E7EB"/>
<path d="M3.5 36.9091C3.5 36.3655 3.63258 35.87 3.89773 35.4226C4.16288 34.9751 4.51918 34.6188 4.96662 34.3537C5.41406 34.0885 5.90956 33.956 6.45312 33.956C6.92377 33.956 7.35795 34.0571 7.75568 34.2592C8.15672 34.4614 8.48816 34.7382 8.75 35.0895C9.01184 35.4375 9.17424 35.8319 9.23722 36.2727H8.03409C7.9678 35.9313 7.78385 35.6529 7.48224 35.4375C7.18063 35.2188 6.83759 35.1094 6.45312 35.1094C6.12169 35.1094 5.82008 35.1906 5.5483 35.353C5.27652 35.5154 5.05942 35.7325 4.89702 36.0043C4.73461 36.276 4.65341 36.5777 4.65341 36.9091C4.65341 37.2405 4.73461 37.5421 4.89702 37.8139C5.05942 38.0857 5.27652 38.3028 5.5483 38.4652C5.82008 38.6276 6.12169 38.7088 6.45312 38.7088C6.83759 38.7088 7.16241 38.6011 7.42756 38.3857C7.69602 38.1669 7.86506 37.8868 7.93466 37.5455H9.13778C9.07481 37.9863 8.92069 38.3823 8.67543 38.7337C8.43016 39.0817 8.11529 39.3568 7.73082 39.5589C7.34967 39.7611 6.92377 39.8622 6.45312 39.8622C5.90956 39.8622 5.41406 39.7296 4.96662 39.4645C4.51918 39.1993 4.16288 38.843 3.89773 38.3956C3.63258 37.9482 3.5 37.4527 3.5 36.9091ZM6.40341 42.1591C5.68087 42.1591 5.00142 42.0232 4.36506 41.7514C3.73201 41.4796 3.17353 41.1035 2.68963 40.6229C2.20904 40.139 1.8312 39.5805 1.55611 38.9474C1.28433 38.3144 1.15009 37.6349 1.15341 36.9091C1.15672 36.1832 1.29427 35.5038 1.56605 34.8707C1.84115 34.2377 2.21899 33.6809 2.69957 33.2003C3.18016 32.7164 3.73698 32.3385 4.37003 32.0668C5.00308 31.795 5.68087 31.6591 6.40341 31.6591C7.12926 31.6591 7.80871 31.795 8.44176 32.0668C9.07813 32.3385 9.63494 32.7164 10.1122 33.2003C10.5928 33.6809 10.969 34.2377 11.2408 34.8707C11.5125 35.5038 11.6501 36.1832 11.6534 36.9091C11.6567 37.6349 11.5225 38.3144 11.2507 38.9474C10.9789 39.5805 10.6027 40.139 10.1222 40.6229C9.64157 41.1035 9.0831 41.4796 8.44673 41.7514C7.81037 42.0232 7.12926 42.1591 6.40341 42.1591ZM6.40341 41.0057C6.97017 41.0057 7.50213 40.8996 7.99929 40.6875C8.49645 40.4754 8.93229 40.1821 9.30682 39.8075C9.68134 39.433 9.97467 38.9988 10.1868 38.505C10.3989 38.0078 10.5033 37.4775 10.5 36.9141C10.4967 36.3473 10.389 35.8153 10.1768 35.3182C9.96473 34.821 9.6714 34.3852 9.29688 34.0107C8.92235 33.6361 8.48816 33.3428 7.99432 33.1307C7.50047 32.9186 6.97017 32.8125 6.40341 32.8125C5.83996 32.8125 5.31132 32.9186 4.81747 33.1307C4.32363 33.3428 3.88944 33.6378 3.51491 34.0156C3.14039 34.3902 2.84541 34.826 2.62997 35.3232C2.41785 35.817 2.31013 36.3473 2.30682 36.9141C2.3035 37.4742 2.40791 38.0028 2.62003 38.5C2.83215 38.9938 3.12547 39.428 3.5 39.8026C3.87784 40.1771 4.31368 40.4721 4.80753 40.6875C5.30469 40.8996 5.83665 41.0057 6.40341 41.0057ZM17.802 42V41.1051L21.1628 37.4261C21.5572 36.9953 21.882 36.6207 22.1373 36.3026C22.3925 35.9811 22.5814 35.6795 22.704 35.3977C22.83 35.1127 22.8929 34.8144 22.8929 34.5028C22.8929 34.1449 22.8068 33.835 22.6344 33.5732C22.4654 33.3113 22.2334 33.1091 21.9384 32.9666C21.6434 32.8241 21.312 32.7528 20.9441 32.7528C20.553 32.7528 20.2116 32.834 19.9199 32.9964C19.6316 33.1555 19.4078 33.3793 19.2488 33.6676C19.093 33.956 19.0151 34.294 19.0151 34.6818H17.8418C17.8418 34.0852 17.9793 33.5616 18.2544 33.1108C18.5295 32.66 18.9041 32.3087 19.378 32.0568C19.8553 31.8049 20.3906 31.679 20.9838 31.679C21.5804 31.679 22.1091 31.8049 22.5698 32.0568C23.0305 32.3087 23.3917 32.6484 23.6536 33.076C23.9154 33.5036 24.0463 33.9792 24.0463 34.5028C24.0463 34.8774 23.9784 35.2436 23.8425 35.6016C23.7099 35.9562 23.4779 36.3523 23.1465 36.7898C22.8184 37.224 22.3626 37.7543 21.7793 38.3807L19.4924 40.8267V40.9062H24.2253V42H17.802ZM29.5996 42.1392C28.8506 42.1392 28.2125 41.9354 27.6855 41.5277C27.1586 41.1167 26.7559 40.5218 26.4775 39.7429C26.199 38.9607 26.0598 38.0161 26.0598 36.9091C26.0598 35.8087 26.199 34.8691 26.4775 34.0902C26.7592 33.308 27.1635 32.7114 27.6905 32.3004C28.2208 31.8861 28.8572 31.679 29.5996 31.679C30.342 31.679 30.9767 31.8861 31.5037 32.3004C32.034 32.7114 32.4384 33.308 32.7168 34.0902C32.9985 34.8691 33.1394 35.8087 33.1394 36.9091C33.1394 38.0161 33.0002 38.9607 32.7218 39.7429C32.4434 40.5218 32.0407 41.1167 31.5137 41.5277C30.9867 41.9354 30.3487 42.1392 29.5996 42.1392ZM29.5996 41.0455C30.342 41.0455 30.9187 40.6875 31.3297 39.9716C31.7407 39.2557 31.9462 38.2348 31.9462 36.9091C31.9462 36.0275 31.8517 35.2768 31.6628 34.657C31.4772 34.0372 31.2087 33.5649 30.8574 33.2401C30.5094 32.9152 30.0901 32.7528 29.5996 32.7528C28.8638 32.7528 28.2888 33.1158 27.8745 33.8416C27.4602 34.5642 27.253 35.5866 27.253 36.9091C27.253 37.7907 27.3458 38.5398 27.5314 39.1562C27.717 39.7727 27.9838 40.2417 28.3319 40.5632C28.6832 40.8847 29.1058 41.0455 29.5996 41.0455ZM35.0286 42V41.1051L38.3894 37.4261C38.7838 36.9953 39.1086 36.6207 39.3638 36.3026C39.619 35.9811 39.8079 35.6795 39.9306 35.3977C40.0565 35.1127 40.1195 34.8144 40.1195 34.5028C40.1195 34.1449 40.0333 33.835 39.861 33.5732C39.6919 33.3113 39.4599 33.1091 39.165 32.9666C38.87 32.8241 38.5385 32.7528 38.1706 32.7528C37.7795 32.7528 37.4382 32.834 37.1465 32.9964C36.8581 33.1555 36.6344 33.3793 36.4753 33.6676C36.3195 33.956 36.2417 34.294 36.2417 34.6818H35.0684C35.0684 34.0852 35.2059 33.5616 35.481 33.1108C35.7561 32.66 36.1306 32.3087 36.6046 32.0568C37.0819 31.8049 37.6171 31.679 38.2104 31.679C38.807 31.679 39.3356 31.8049 39.7963 32.0568C40.257 32.3087 40.6183 32.6484 40.8801 33.076C41.142 33.5036 41.2729 33.9792 41.2729 34.5028C41.2729 34.8774 41.205 35.2436 41.0691 35.6016C40.9365 35.9562 40.7045 36.3523 40.373 36.7898C40.0449 37.224 39.5892 37.7543 39.0059 38.3807L36.7189 40.8267V40.9062H41.4519V42H35.0286ZM43.5051 42V41.1051L46.8659 37.4261C47.2604 36.9953 47.5852 36.6207 47.8404 36.3026C48.0956 35.9811 48.2845 35.6795 48.4071 35.3977C48.5331 35.1127 48.5961 34.8144 48.5961 34.5028C48.5961 34.1449 48.5099 33.835 48.3375 33.5732C48.1685 33.3113 47.9365 33.1091 47.6415 32.9666C47.3465 32.8241 47.0151 32.7528 46.6472 32.7528C46.2561 32.7528 45.9147 32.834 45.623 32.9964C45.3347 33.1555 45.111 33.3793 44.9519 33.6676C44.7961 33.956 44.7182 34.294 44.7182 34.6818H43.5449C43.5449 34.0852 43.6825 33.5616 43.9576 33.1108C44.2327 32.66 44.6072 32.3087 45.0811 32.0568C45.5584 31.8049 46.0937 31.679 46.687 31.679C47.2836 31.679 47.8122 31.8049 48.2729 32.0568C48.7336 32.3087 49.0949 32.6484 49.3567 33.076C49.6185 33.5036 49.7495 33.9792 49.7495 34.5028C49.7495 34.8774 49.6815 35.2436 49.5456 35.6016C49.4131 35.9562 49.181 36.3523 48.8496 36.7898C48.5215 37.224 48.0658 37.7543 47.4824 38.3807L45.1955 40.8267V40.9062H49.9284V42H43.5051ZM56.5158 42H55.2232L58.9618 31.8182H60.2346L63.9732 42H62.6806L59.638 33.429H59.5584L56.5158 42ZM56.9931 38.0227H62.2033V39.1165H56.9931V38.0227ZM65.4821 42V34.3636H66.6554V42H65.4821ZM66.0787 33.0909C65.85 33.0909 65.6528 33.013 65.487 32.8572C65.3246 32.7015 65.2434 32.5142 65.2434 32.2955C65.2434 32.0767 65.3246 31.8894 65.487 31.7337C65.6528 31.5779 65.85 31.5 66.0787 31.5C66.3074 31.5 66.5029 31.5779 66.6653 31.7337C66.831 31.8894 66.9139 32.0767 66.9139 32.2955C66.9139 32.5142 66.831 32.7015 66.6653 32.8572C66.5029 33.013 66.3074 33.0909 66.0787 33.0909ZM68.8043 42V34.3636H69.9379V35.517H70.0174C70.1566 35.1392 70.4085 34.8326 70.7731 34.5973C71.1377 34.362 71.5487 34.2443 72.006 34.2443C72.0922 34.2443 72.1999 34.246 72.3292 34.2493C72.4585 34.2526 72.5562 34.2576 72.6225 34.2642V35.4574C72.5827 35.4474 72.4916 35.4325 72.3491 35.4126C72.2099 35.3894 72.0624 35.3778 71.9066 35.3778C71.5354 35.3778 71.204 35.4557 70.9123 35.6115C70.6239 35.764 70.3952 35.9761 70.2262 36.2479C70.0605 36.5163 69.9776 36.8229 69.9776 37.1676V42H68.8043ZM74.1724 42V31.8182H75.3457V35.5767H75.4451C75.5313 35.4441 75.6506 35.2751 75.8031 35.0696C75.9589 34.8608 76.1809 34.6752 76.4693 34.5128C76.7609 34.3471 77.1554 34.2642 77.6525 34.2642C78.2955 34.2642 78.8623 34.425 79.3528 34.7464C79.8433 35.0679 80.2261 35.5237 80.5012 36.1136C80.7763 36.7036 80.9139 37.3996 80.9139 38.2017C80.9139 39.0104 80.7763 39.7114 80.5012 40.3047C80.2261 40.8946 79.845 41.352 79.3578 41.6768C78.8706 41.9983 78.3088 42.1591 77.6724 42.1591C77.1819 42.1591 76.7891 42.0779 76.4941 41.9155C76.1992 41.7498 75.9721 41.5625 75.813 41.3537C75.6539 41.1416 75.5313 40.9659 75.4451 40.8267H75.3059V42H74.1724ZM75.3258 38.1818C75.3258 38.7585 75.4103 39.2673 75.5794 39.7081C75.7484 40.1456 75.9953 40.4886 76.3201 40.7372C76.6449 40.9825 77.0427 41.1051 77.5133 41.1051C78.0038 41.1051 78.4132 40.9759 78.7413 40.7173C79.0727 40.4555 79.3213 40.1042 79.487 39.6634C79.6561 39.2192 79.7406 38.7254 79.7406 38.1818C79.7406 37.6449 79.6577 37.161 79.492 36.7301C79.3296 36.2959 79.0827 35.9529 78.7512 35.701C78.4231 35.4458 78.0105 35.3182 77.5133 35.3182C77.036 35.3182 76.635 35.4392 76.3102 35.6811C75.9854 35.9197 75.7401 36.2545 75.5744 36.6854C75.4087 37.1129 75.3258 37.6117 75.3258 38.1818ZM83.8819 37.4062V42H82.7086V34.3636H83.8422V35.5568H83.9416C84.1206 35.169 84.3923 34.8575 84.7569 34.6222C85.1215 34.3835 85.5922 34.2642 86.1689 34.2642C86.6859 34.2642 87.1383 34.3703 87.5261 34.5824C87.9139 34.7912 88.2155 35.1094 88.4309 35.5369C88.6464 35.9612 88.7541 36.4981 88.7541 37.1477V42H87.5808V37.2273C87.5808 36.6274 87.425 36.16 87.1135 35.8253C86.8019 35.4872 86.3743 35.3182 85.8308 35.3182C85.4563 35.3182 85.1215 35.3994 84.8265 35.5618C84.5349 35.7242 84.3045 35.9612 84.1355 36.2727C83.9664 36.5843 83.8819 36.9621 83.8819 37.4062ZM91.0572 42V31.8182H92.2305V35.5767H92.3299C92.4161 35.4441 92.5354 35.2751 92.6879 35.0696C92.8436 34.8608 93.0657 34.6752 93.354 34.5128C93.6457 34.3471 94.0401 34.2642 94.5373 34.2642C95.1803 34.2642 95.747 34.425 96.2376 34.7464C96.7281 35.0679 97.1109 35.5237 97.386 36.1136C97.6611 36.7036 97.7987 37.3996 97.7987 38.2017C97.7987 39.0104 97.6611 39.7114 97.386 40.3047C97.1109 40.8946 96.7298 41.352 96.2425 41.6768C95.7553 41.9983 95.1935 42.1591 94.5572 42.1591C94.0666 42.1591 93.6739 42.0779 93.3789 41.9155C93.0839 41.7498 92.8569 41.5625 92.6978 41.3537C92.5387 41.1416 92.4161 40.9659 92.3299 40.8267H92.1907V42H91.0572ZM92.2106 38.1818C92.2106 38.7585 92.2951 39.2673 92.4641 39.7081C92.6332 40.1456 92.8801 40.4886 93.2049 40.7372C93.5297 40.9825 93.9274 41.1051 94.3981 41.1051C94.8886 41.1051 95.2979 40.9759 95.6261 40.7173C95.9575 40.4555 96.2061 40.1042 96.3718 39.6634C96.5408 39.2192 96.6254 38.7254 96.6254 38.1818C96.6254 37.6449 96.5425 37.161 96.3768 36.7301C96.2144 36.2959 95.9674 35.9529 95.636 35.701C95.3079 35.4458 94.8952 35.3182 94.3981 35.3182C93.9208 35.3182 93.5198 35.4392 93.195 35.6811C92.8701 35.9197 92.6249 36.2545 92.4592 36.6854C92.2934 37.1129 92.2106 37.6117 92.2106 38.1818ZM101.343 40.608L101.264 41.1449C101.208 41.5227 101.121 41.9271 101.005 42.358C100.893 42.7888 100.775 43.1948 100.652 43.576C100.53 43.9571 100.429 44.2604 100.349 44.4858H99.4542C99.4973 44.2737 99.5536 43.9936 99.6232 43.6456C99.6928 43.2976 99.7624 42.9081 99.832 42.4773C99.9049 42.0497 99.9646 41.6122 100.011 41.1648L100.071 40.608H101.343ZM108.847 31.8182V42H107.614V31.8182H108.847ZM112.333 37.4062V42H111.16V34.3636H112.293V35.5568H112.393C112.572 35.169 112.844 34.8575 113.208 34.6222C113.573 34.3835 114.043 34.2642 114.62 34.2642C115.137 34.2642 115.589 34.3703 115.977 34.5824C116.365 34.7912 116.667 35.1094 116.882 35.5369C117.098 35.9612 117.205 36.4981 117.205 37.1477V42H116.032V37.2273C116.032 36.6274 115.876 36.16 115.565 35.8253C115.253 35.4872 114.826 35.3182 114.282 35.3182C113.907 35.3182 113.573 35.3994 113.278 35.5618C112.986 35.7242 112.756 35.9612 112.587 36.2727C112.418 36.5843 112.333 36.9621 112.333 37.4062ZM122.452 42.1591C121.736 42.1591 121.119 41.9901 120.602 41.652C120.085 41.3139 119.687 40.8482 119.409 40.255C119.131 39.6617 118.991 38.9839 118.991 38.2216C118.991 37.446 119.134 36.7616 119.419 36.1683C119.707 35.5717 120.108 35.1061 120.622 34.7713C121.139 34.4332 121.742 34.2642 122.432 34.2642C122.969 34.2642 123.452 34.3636 123.883 34.5625C124.314 34.7614 124.667 35.0398 124.942 35.3977C125.217 35.7557 125.388 36.1733 125.454 36.6506H124.281C124.192 36.3026 123.993 35.9943 123.684 35.7259C123.38 35.4541 122.969 35.3182 122.452 35.3182C121.994 35.3182 121.593 35.4375 121.248 35.6761C120.907 35.9115 120.64 36.2446 120.448 36.6754C120.259 37.103 120.165 37.6051 120.165 38.1818C120.165 38.7718 120.257 39.2855 120.443 39.723C120.632 40.1605 120.897 40.5002 121.238 40.7422C121.583 40.9841 121.988 41.1051 122.452 41.1051C122.756 41.1051 123.033 41.0521 123.282 40.946C123.53 40.84 123.741 40.6875 123.913 40.4886C124.086 40.2898 124.208 40.0511 124.281 39.7727H125.454C125.388 40.2235 125.224 40.6295 124.962 40.9908C124.704 41.3487 124.361 41.6338 123.933 41.8459C123.509 42.0547 123.015 42.1591 122.452 42.1591ZM128.025 42.0795C127.779 42.0795 127.569 41.9917 127.393 41.8161C127.218 41.6404 127.13 41.4299 127.13 41.1847C127.13 40.9394 127.218 40.7289 127.393 40.5533C127.569 40.3776 127.779 40.2898 128.025 40.2898C128.27 40.2898 128.48 40.3776 128.656 40.5533C128.832 40.7289 128.92 40.9394 128.92 41.1847C128.92 41.3471 128.878 41.4962 128.795 41.6321C128.716 41.768 128.608 41.8774 128.472 41.9602C128.34 42.0398 128.19 42.0795 128.025 42.0795Z" fill="#4B5563"/>
<circle cx="139" cy="37" r="1" fill="#4B5563"/>
<path d="M149.233 42V31.8182H152.673C153.472 31.8182 154.125 31.9624 154.632 32.2507C155.143 32.5357 155.52 32.9219 155.766 33.4091C156.011 33.8963 156.134 34.4399 156.134 35.0398C156.134 35.6397 156.011 36.1849 155.766 36.6754C155.524 37.166 155.149 37.5571 154.642 37.8487C154.135 38.1371 153.485 38.2812 152.693 38.2812H150.227V37.1875H152.653C153.2 37.1875 153.639 37.093 153.971 36.9041C154.302 36.7152 154.543 36.46 154.692 36.1385C154.844 35.8137 154.92 35.4474 154.92 35.0398C154.92 34.6321 154.844 34.2675 154.692 33.946C154.543 33.6245 154.301 33.3726 153.966 33.1903C153.631 33.0047 153.187 32.9119 152.634 32.9119H150.466V42H149.233ZM157.961 42V34.3636H159.094V35.517H159.174C159.313 35.1392 159.565 34.8326 159.929 34.5973C160.294 34.362 160.705 34.2443 161.162 34.2443C161.248 34.2443 161.356 34.246 161.485 34.2493C161.615 34.2526 161.712 34.2576 161.779 34.2642V35.4574C161.739 35.4474 161.648 35.4325 161.505 35.4126C161.366 35.3894 161.219 35.3778 161.063 35.3778C160.692 35.3778 160.36 35.4557 160.069 35.6115C159.78 35.764 159.551 35.9761 159.382 36.2479C159.217 36.5163 159.134 36.8229 159.134 37.1676V42H157.961ZM163.17 42V34.3636H164.343V42H163.17ZM163.766 33.0909C163.537 33.0909 163.34 33.013 163.175 32.8572C163.012 32.7015 162.931 32.5142 162.931 32.2955C162.931 32.0767 163.012 31.8894 163.175 31.7337C163.34 31.5779 163.537 31.5 163.766 31.5C163.995 31.5 164.19 31.5779 164.353 31.7337C164.519 31.8894 164.601 32.0767 164.601 32.2955C164.601 32.5142 164.519 32.7015 164.353 32.8572C164.19 33.013 163.995 33.0909 163.766 33.0909ZM172.736 34.3636L169.912 42H168.719L165.895 34.3636H167.168L169.276 40.4489H169.355L171.463 34.3636H172.736ZM176.3 42.179C175.816 42.179 175.376 42.0878 174.982 41.9055C174.588 41.7199 174.274 41.4531 174.042 41.1051C173.81 40.7538 173.694 40.3295 173.694 39.8324C173.694 39.3949 173.781 39.0402 173.953 38.7685C174.125 38.4934 174.356 38.2779 174.644 38.1222C174.932 37.9664 175.251 37.8504 175.599 37.7741C175.95 37.6946 176.303 37.6316 176.657 37.5852C177.122 37.5256 177.498 37.4808 177.786 37.451C178.078 37.4179 178.29 37.3632 178.422 37.2869C178.558 37.2107 178.626 37.0781 178.626 36.8892V36.8494C178.626 36.3589 178.492 35.9777 178.224 35.706C177.958 35.4342 177.556 35.2983 177.015 35.2983C176.455 35.2983 176.016 35.4209 175.698 35.6662C175.38 35.9115 175.156 36.1733 175.027 36.4517L173.913 36.054C174.112 35.59 174.377 35.2287 174.709 34.9702C175.043 34.7083 175.408 34.526 175.802 34.4233C176.2 34.3172 176.591 34.2642 176.976 34.2642C177.221 34.2642 177.503 34.294 177.821 34.3537C178.142 34.41 178.452 34.5277 178.751 34.7067C179.052 34.8857 179.302 35.1558 179.501 35.517C179.7 35.8783 179.8 36.3622 179.8 36.9688V42H178.626V40.9659H178.567C178.487 41.1316 178.354 41.3089 178.169 41.4979C177.983 41.6868 177.736 41.8475 177.428 41.9801C177.12 42.1127 176.744 42.179 176.3 42.179ZM176.479 41.125C176.943 41.125 177.334 41.0339 177.652 40.8516C177.973 40.6693 178.215 40.4339 178.378 40.1456C178.543 39.8572 178.626 39.554 178.626 39.2358V38.1619C178.577 38.2216 178.467 38.2763 178.298 38.326C178.132 38.3724 177.94 38.4138 177.721 38.4503C177.506 38.4834 177.296 38.5133 177.09 38.5398C176.888 38.563 176.724 38.5829 176.598 38.5994C176.293 38.6392 176.008 38.7038 175.743 38.7933C175.481 38.8795 175.269 39.0104 175.106 39.1861C174.947 39.3584 174.868 39.5937 174.868 39.892C174.868 40.2997 175.019 40.608 175.32 40.8168C175.625 41.0223 176.011 41.125 176.479 41.125ZM185.043 42.1591C184.327 42.1591 183.711 41.9901 183.194 41.652C182.677 41.3139 182.279 40.8482 182.001 40.255C181.722 39.6617 181.583 38.9839 181.583 38.2216C181.583 37.446 181.726 36.7616 182.011 36.1683C182.299 35.5717 182.7 35.1061 183.214 34.7713C183.731 34.4332 184.334 34.2642 185.023 34.2642C185.56 34.2642 186.044 34.3636 186.475 34.5625C186.906 34.7614 187.259 35.0398 187.534 35.3977C187.809 35.7557 187.98 36.1733 188.046 36.6506H186.873C186.783 36.3026 186.585 35.9943 186.276 35.7259C185.971 35.4541 185.56 35.3182 185.043 35.3182C184.586 35.3182 184.185 35.4375 183.84 35.6761C183.499 35.9115 183.232 36.2446 183.04 36.6754C182.851 37.103 182.756 37.6051 182.756 38.1818C182.756 38.7718 182.849 39.2855 183.035 39.723C183.224 40.1605 183.489 40.5002 183.83 40.7422C184.175 40.9841 184.579 41.1051 185.043 41.1051C185.348 41.1051 185.625 41.0521 185.874 40.946C186.122 40.84 186.333 40.6875 186.505 40.4886C186.677 40.2898 186.8 40.0511 186.873 39.7727H188.046C187.98 40.2235 187.816 40.6295 187.554 40.9908C187.295 41.3487 186.952 41.6338 186.525 41.8459C186.101 42.0547 185.607 42.1591 185.043 42.1591ZM190.517 44.8636C190.318 44.8636 190.141 44.8471 189.985 44.8139C189.829 44.7841 189.722 44.7543 189.662 44.7244L189.96 43.6903C190.245 43.7633 190.497 43.7898 190.716 43.7699C190.935 43.75 191.129 43.6522 191.298 43.4766C191.47 43.3042 191.627 43.0241 191.77 42.6364L191.989 42.0398L189.165 34.3636H190.438L192.545 40.4489H192.625L194.733 34.3636H196.006L192.764 43.1136C192.618 43.508 192.438 43.8345 192.222 44.093C192.007 44.3549 191.757 44.5488 191.472 44.6747C191.19 44.8007 190.872 44.8636 190.517 44.8636Z" fill="#4B5563"/>
<circle cx="206" cy="37" r="1" fill="#4B5563"/>
<path d="M215.676 32.9119V31.8182H223.312V32.9119H220.111V42H218.878V32.9119H215.676ZM227.151 42.1591C226.415 42.1591 225.78 41.9967 225.246 41.6719C224.716 41.3438 224.307 40.8864 224.018 40.2997C223.733 39.7098 223.591 39.0237 223.591 38.2415C223.591 37.4593 223.733 36.7699 224.018 36.1733C224.307 35.5734 224.708 35.1061 225.222 34.7713C225.739 34.4332 226.342 34.2642 227.031 34.2642C227.429 34.2642 227.822 34.3305 228.21 34.4631C228.597 34.5956 228.95 34.8111 229.268 35.1094C229.587 35.4044 229.84 35.7955 230.029 36.2827C230.218 36.7699 230.312 37.3698 230.312 38.0824V38.5795H224.426V37.5653H229.119C229.119 37.1345 229.033 36.75 228.861 36.4119C228.692 36.0739 228.45 35.8071 228.135 35.6115C227.823 35.416 227.455 35.3182 227.031 35.3182C226.564 35.3182 226.16 35.4342 225.818 35.6662C225.48 35.8949 225.22 36.1932 225.038 36.5611C224.855 36.929 224.764 37.3234 224.764 37.7443V38.4205C224.764 38.9972 224.864 39.486 225.062 39.8871C225.265 40.2848 225.545 40.5881 225.903 40.7969C226.261 41.0024 226.677 41.1051 227.151 41.1051C227.459 41.1051 227.737 41.062 227.986 40.9759C228.238 40.8864 228.455 40.7538 228.637 40.5781C228.819 40.3991 228.96 40.1771 229.06 39.9119L230.193 40.2301C230.074 40.6146 229.873 40.9527 229.592 41.2443C229.31 41.5327 228.962 41.758 228.548 41.9205C228.133 42.0795 227.668 42.1591 227.151 42.1591ZM232.097 42V34.3636H233.231V35.517H233.31C233.45 35.1392 233.701 34.8326 234.066 34.5973C234.431 34.362 234.842 34.2443 235.299 34.2443C235.385 34.2443 235.493 34.246 235.622 34.2493C235.751 34.2526 235.849 34.2576 235.915 34.2642V35.4574C235.876 35.4474 235.785 35.4325 235.642 35.4126C235.503 35.3894 235.355 35.3778 235.2 35.3778C234.828 35.3778 234.497 35.4557 234.205 35.6115C233.917 35.764 233.688 35.9761 233.519 36.2479C233.353 36.5163 233.271 36.8229 233.271 37.1676V42H232.097ZM237.306 42V34.3636H238.44V35.5568H238.539C238.698 35.1491 238.955 34.8326 239.31 34.6072C239.664 34.3786 240.09 34.2642 240.588 34.2642C241.091 34.2642 241.511 34.3786 241.845 34.6072C242.183 34.8326 242.447 35.1491 242.636 35.5568H242.715C242.911 35.1624 243.204 34.8492 243.595 34.6172C243.986 34.3819 244.455 34.2642 245.002 34.2642C245.685 34.2642 246.244 34.478 246.678 34.9055C247.112 35.3298 247.329 35.991 247.329 36.8892V42H246.156V36.8892C246.156 36.3258 246.002 35.9231 245.693 35.6811C245.385 35.4392 245.022 35.3182 244.605 35.3182C244.068 35.3182 243.652 35.4806 243.357 35.8054C243.062 36.1269 242.914 36.5346 242.914 37.0284V42H241.721V36.7699C241.721 36.3357 241.58 35.986 241.298 35.7209C241.017 35.4524 240.654 35.3182 240.21 35.3182C239.905 35.3182 239.62 35.3994 239.355 35.5618C239.093 35.7242 238.881 35.9496 238.718 36.2379C238.559 36.523 238.48 36.8527 238.48 37.2273V42H237.306ZM254.883 36.0739L253.829 36.3722C253.763 36.1965 253.665 36.0258 253.536 35.8601C253.41 35.6911 253.238 35.5518 253.019 35.4425C252.8 35.3331 252.52 35.2784 252.179 35.2784C251.711 35.2784 251.322 35.3861 251.01 35.6016C250.702 35.8137 250.548 36.0838 250.548 36.4119C250.548 36.7036 250.654 36.9339 250.866 37.103C251.078 37.272 251.41 37.4129 251.861 37.5256L252.994 37.804C253.677 37.9697 254.186 38.2232 254.52 38.5646C254.855 38.9027 255.023 39.3385 255.023 39.8722C255.023 40.3097 254.897 40.7008 254.645 41.0455C254.396 41.3902 254.048 41.6619 253.601 41.8608C253.153 42.0597 252.633 42.1591 252.04 42.1591C251.261 42.1591 250.616 41.9901 250.106 41.652C249.595 41.3139 249.272 40.8201 249.136 40.1705L250.25 39.892C250.356 40.303 250.556 40.6113 250.851 40.8168C251.15 41.0223 251.539 41.125 252.02 41.125C252.567 41.125 253.001 41.009 253.322 40.777C253.647 40.5417 253.809 40.2599 253.809 39.9318C253.809 39.6667 253.717 39.4446 253.531 39.2656C253.345 39.0833 253.06 38.9474 252.676 38.858L251.403 38.5597C250.704 38.3939 250.19 38.1371 249.862 37.7891C249.537 37.4377 249.375 36.9986 249.375 36.4716C249.375 36.0407 249.496 35.6596 249.738 35.3281C249.983 34.9967 250.316 34.7365 250.737 34.5476C251.161 34.3587 251.642 34.2642 252.179 34.2642C252.934 34.2642 253.528 34.4299 253.959 34.7614C254.393 35.0928 254.701 35.5303 254.883 36.0739Z" fill="#4B5563"/>
<circle cx="265" cy="37" r="1" fill="#4B5563"/>
<path d="M280.801 34.3636C280.741 33.8598 280.5 33.4688 280.075 33.1903C279.651 32.9119 279.131 32.7727 278.514 32.7727C278.063 32.7727 277.669 32.8456 277.331 32.9915C276.996 33.1373 276.734 33.3378 276.545 33.593C276.36 33.8482 276.267 34.1383 276.267 34.4631C276.267 34.7348 276.332 34.9685 276.461 35.1641C276.594 35.3563 276.763 35.517 276.968 35.6463C277.174 35.7723 277.389 35.8767 277.614 35.9595C277.84 36.0391 278.047 36.1037 278.236 36.1534L279.27 36.4318C279.535 36.5014 279.83 36.5975 280.155 36.7202C280.483 36.8428 280.796 37.0102 281.094 37.2223C281.396 37.4311 281.645 37.6996 281.84 38.0277C282.036 38.3558 282.134 38.7585 282.134 39.2358C282.134 39.786 281.989 40.2831 281.701 40.7273C281.416 41.1714 280.998 41.5244 280.448 41.7862C279.901 42.0481 279.237 42.179 278.455 42.179C277.725 42.179 277.094 42.0613 276.56 41.826C276.03 41.5907 275.612 41.2625 275.308 40.8416C275.006 40.4207 274.835 39.9318 274.795 39.375H276.068C276.101 39.7595 276.231 40.0777 276.456 40.3295C276.685 40.5781 276.973 40.7637 277.321 40.8864C277.672 41.0057 278.05 41.0653 278.455 41.0653C278.925 41.0653 279.348 40.9891 279.722 40.8366C280.097 40.6809 280.393 40.4654 280.612 40.1903C280.831 39.9119 280.94 39.5871 280.94 39.2159C280.94 38.8778 280.846 38.6027 280.657 38.3906C280.468 38.1785 280.219 38.0062 279.911 37.8736C279.603 37.741 279.27 37.625 278.912 37.5256L277.659 37.1676C276.864 36.9389 276.234 36.6125 275.77 36.1882C275.306 35.764 275.074 35.2088 275.074 34.5227C275.074 33.9527 275.228 33.4555 275.536 33.0312C275.848 32.6037 276.265 32.2723 276.789 32.0369C277.316 31.7983 277.904 31.679 278.554 31.679C279.21 31.679 279.794 31.7966 280.304 32.032C280.814 32.264 281.219 32.5821 281.517 32.9865C281.819 33.3909 281.978 33.8499 281.994 34.3636H280.801ZM284.002 42V34.3636H285.175V42H284.002ZM284.598 33.0909C284.369 33.0909 284.172 33.013 284.007 32.8572C283.844 32.7015 283.763 32.5142 283.763 32.2955C283.763 32.0767 283.844 31.8894 284.007 31.7337C284.172 31.5779 284.369 31.5 284.598 31.5C284.827 31.5 285.022 31.5779 285.185 31.7337C285.351 31.8894 285.433 32.0767 285.433 32.2955C285.433 32.5142 285.351 32.7015 285.185 32.8572C285.022 33.013 284.827 33.0909 284.598 33.0909ZM290.645 34.3636V35.358H286.688V34.3636H290.645ZM287.841 32.5341H289.014V39.8125C289.014 40.1439 289.062 40.3925 289.158 40.5582C289.258 40.7206 289.384 40.83 289.536 40.8864C289.692 40.9394 289.856 40.9659 290.028 40.9659C290.158 40.9659 290.264 40.9593 290.347 40.946C290.429 40.9295 290.496 40.9162 290.545 40.9062L290.784 41.9602C290.705 41.9901 290.594 42.0199 290.451 42.0497C290.308 42.0829 290.128 42.0994 289.909 42.0994C289.578 42.0994 289.253 42.0282 288.935 41.8857C288.62 41.7431 288.358 41.526 288.149 41.2344C287.944 40.9427 287.841 40.5748 287.841 40.1307V32.5341ZM295.529 42.1591C294.794 42.1591 294.159 41.9967 293.625 41.6719C293.095 41.3438 292.686 40.8864 292.397 40.2997C292.112 39.7098 291.97 39.0237 291.97 38.2415C291.97 37.4593 292.112 36.7699 292.397 36.1733C292.686 35.5734 293.087 35.1061 293.6 34.7713C294.118 34.4332 294.721 34.2642 295.41 34.2642C295.808 34.2642 296.201 34.3305 296.588 34.4631C296.976 34.5956 297.329 34.8111 297.647 35.1094C297.966 35.4044 298.219 35.7955 298.408 36.2827C298.597 36.7699 298.691 37.3698 298.691 38.0824V38.5795H292.805V37.5653H297.498C297.498 37.1345 297.412 36.75 297.24 36.4119C297.071 36.0739 296.829 35.8071 296.514 35.6115C296.202 35.416 295.834 35.3182 295.41 35.3182C294.943 35.3182 294.538 35.4342 294.197 35.6662C293.859 35.8949 293.599 36.1932 293.417 36.5611C293.234 36.929 293.143 37.3234 293.143 37.7443V38.4205C293.143 38.9972 293.243 39.486 293.441 39.8871C293.644 40.2848 293.924 40.5881 294.282 40.7969C294.64 41.0024 295.056 41.1051 295.529 41.1051C295.838 41.1051 296.116 41.062 296.365 40.9759C296.617 40.8864 296.834 40.7538 297.016 40.5781C297.198 40.3991 297.339 40.1771 297.439 39.9119L298.572 40.2301C298.453 40.6146 298.252 40.9527 297.971 41.2443C297.689 41.5327 297.341 41.758 296.926 41.9205C296.512 42.0795 296.047 42.1591 295.529 42.1591ZM300.476 42V34.3636H301.61V35.5568H301.709C301.868 35.1491 302.125 34.8326 302.48 34.6072C302.834 34.3786 303.26 34.2642 303.757 34.2642C304.261 34.2642 304.681 34.3786 305.015 34.6072C305.353 34.8326 305.617 35.1491 305.806 35.5568H305.885C306.081 35.1624 306.374 34.8492 306.765 34.6172C307.156 34.3819 307.625 34.2642 308.172 34.2642C308.855 34.2642 309.413 34.478 309.848 34.9055C310.282 35.3298 310.499 35.991 310.499 36.8892V42H309.326V36.8892C309.326 36.3258 309.172 35.9231 308.863 35.6811C308.555 35.4392 308.192 35.3182 307.775 35.3182C307.238 35.3182 306.822 35.4806 306.527 35.8054C306.232 36.1269 306.084 36.5346 306.084 37.0284V42H304.891V36.7699C304.891 36.3357 304.75 35.986 304.468 35.7209C304.187 35.4524 303.824 35.3182 303.38 35.3182C303.075 35.3182 302.79 35.3994 302.525 35.5618C302.263 35.7242 302.051 35.9496 301.888 36.2379C301.729 36.523 301.65 36.8527 301.65 37.2273V42H300.476ZM314.891 42.179C314.407 42.179 313.968 42.0878 313.574 41.9055C313.179 41.7199 312.866 41.4531 312.634 41.1051C312.402 40.7538 312.286 40.3295 312.286 39.8324C312.286 39.3949 312.372 39.0402 312.545 38.7685C312.717 38.4934 312.947 38.2779 313.236 38.1222C313.524 37.9664 313.842 37.8504 314.19 37.7741C314.542 37.6946 314.895 37.6316 315.249 37.5852C315.713 37.5256 316.089 37.4808 316.378 37.451C316.67 37.4179 316.882 37.3632 317.014 37.2869C317.15 37.2107 317.218 37.0781 317.218 36.8892V36.8494C317.218 36.3589 317.084 35.9777 316.815 35.706C316.55 35.4342 316.147 35.2983 315.607 35.2983C315.047 35.2983 314.608 35.4209 314.29 35.6662C313.972 35.9115 313.748 36.1733 313.619 36.4517L312.505 36.054C312.704 35.59 312.969 35.2287 313.3 34.9702C313.635 34.7083 314 34.526 314.394 34.4233C314.792 34.3172 315.183 34.2642 315.567 34.2642C315.813 34.2642 316.094 34.294 316.413 34.3537C316.734 34.41 317.044 34.5277 317.342 34.7067C317.644 34.8857 317.894 35.1558 318.093 35.517C318.292 35.8783 318.391 36.3622 318.391 36.9688V42H317.218V40.9659H317.158C317.079 41.1316 316.946 41.3089 316.761 41.4979C316.575 41.6868 316.328 41.8475 316.02 41.9801C315.712 42.1127 315.335 42.179 314.891 42.179ZM315.07 41.125C315.534 41.125 315.925 41.0339 316.244 40.8516C316.565 40.6693 316.807 40.4339 316.969 40.1456C317.135 39.8572 317.218 39.554 317.218 39.2358V38.1619C317.168 38.2216 317.059 38.2763 316.89 38.326C316.724 38.3724 316.532 38.4138 316.313 38.4503C316.098 38.4834 315.887 38.5133 315.682 38.5398C315.48 38.563 315.316 38.5829 315.19 38.5994C314.885 38.6392 314.6 38.7038 314.335 38.7933C314.073 38.8795 313.861 39.0104 313.698 39.1861C313.539 39.3584 313.46 39.5937 313.46 39.892C313.46 40.2997 313.61 40.608 313.912 40.8168C314.217 41.0223 314.603 41.125 315.07 41.125ZM320.533 44.8636V34.3636H321.666V35.5767H321.806C321.892 35.4441 322.011 35.2751 322.164 35.0696C322.319 34.8608 322.541 34.6752 322.83 34.5128C323.121 34.3471 323.516 34.2642 324.013 34.2642C324.656 34.2642 325.223 34.425 325.713 34.7464C326.204 35.0679 326.587 35.5237 326.862 36.1136C327.137 36.7036 327.274 37.3996 327.274 38.2017C327.274 39.0104 327.137 39.7114 326.862 40.3047C326.587 40.8946 326.205 41.352 325.718 41.6768C325.231 41.9983 324.669 42.1591 324.033 42.1591C323.542 42.1591 323.15 42.0779 322.855 41.9155C322.56 41.7498 322.333 41.5625 322.173 41.3537C322.014 41.1416 321.892 40.9659 321.806 40.8267H321.706V44.8636H320.533ZM321.686 38.1818C321.686 38.7585 321.771 39.2673 321.94 39.7081C322.109 40.1456 322.356 40.4886 322.681 40.7372C323.005 40.9825 323.403 41.1051 323.874 41.1051C324.364 41.1051 324.774 40.9759 325.102 40.7173C325.433 40.4555 325.682 40.1042 325.847 39.6634C326.017 39.2192 326.101 38.7254 326.101 38.1818C326.101 37.6449 326.018 37.161 325.852 36.7301C325.69 36.2959 325.443 35.9529 325.112 35.701C324.784 35.4458 324.371 35.3182 323.874 35.3182C323.396 35.3182 322.995 35.4392 322.671 35.6811C322.346 35.9197 322.101 36.2545 321.935 36.6854C321.769 37.1129 321.686 37.6117 321.686 38.1818Z" fill="#4B5563"/>
<path d="M971.25 37C971.25 41.0041 968.004 44.25 964 44.25C959.996 44.25 956.75 41.0041 956.75 37C956.75 32.9959 959.996 29.75 964 29.75C968.004 29.75 971.25 32.9959 971.25 37Z" stroke="#4B5563" stroke-width="1.5" stroke-linecap="round" stroke-linejoin="round"/>
<path d="M967.25 37C967.25 41.5 965.243 44.25 964 44.25C962.757 44.25 960.75 41.5 960.75 37C960.75 32.5 962.757 29.75 964 29.75C965.243 29.75 967.25 32.5 967.25 37Z" stroke="#4B5563" stroke-width="1.5" stroke-linecap="round" stroke-linejoin="round"/>
<path d="M957 37H971" stroke="#4B5563" stroke-width="1.5" stroke-linecap="round" stroke-linejoin="round"/>
<path d="M981.119 42V31.8182H987.502V33.1406H982.655V36.2429H987.169V37.5604H982.655V40.6776H987.562V42H981.119ZM990.921 37.4659V42H989.435V34.3636H990.862V35.6065H990.956C991.132 35.2022 991.407 34.8774 991.781 34.6321C992.159 34.3868 992.635 34.2642 993.208 34.2642C993.729 34.2642 994.184 34.3736 994.575 34.5923C994.967 34.8078 995.27 35.1293 995.485 35.5568C995.701 35.9844 995.808 36.513 995.808 37.1428V42H994.322V37.3217C994.322 36.7682 994.178 36.3357 993.889 36.0241C993.601 35.7093 993.205 35.5518 992.701 35.5518C992.356 35.5518 992.05 35.6264 991.781 35.7756C991.516 35.9247 991.306 36.1435 991.15 36.4318C990.998 36.7169 990.921 37.0616 990.921 37.4659ZM1001 45.0227C1000.4 45.0227 999.875 44.9432 999.438 44.7841C999.003 44.625 998.649 44.4145 998.374 44.1527C998.099 43.8909 997.893 43.6042 997.757 43.2926L999.035 42.7656C999.124 42.9115 999.244 43.0656 999.393 43.228C999.545 43.3937 999.751 43.5346 1000.01 43.6506C1000.27 43.7666 1000.61 43.8246 1001.02 43.8246C1001.58 43.8246 1002.05 43.687 1002.42 43.4119C1002.78 43.1402 1002.97 42.706 1002.97 42.1094V40.608H1002.87C1002.78 40.7704 1002.65 40.951 1002.49 41.1499C1002.32 41.3487 1002.09 41.5211 1001.8 41.6669C1001.51 41.8127 1001.13 41.8857 1000.66 41.8857C1000.06 41.8857 999.514 41.7448 999.03 41.4631C998.549 41.178 998.168 40.7588 997.887 40.2053C997.608 39.6484 997.469 38.964 997.469 38.152C997.469 37.34 997.606 36.6439 997.882 36.0639C998.16 35.4839 998.541 35.0398 999.025 34.7315C999.509 34.42 1000.06 34.2642 1000.67 34.2642C1001.14 34.2642 1001.53 34.3438 1001.82 34.5028C1002.11 34.6586 1002.34 34.8409 1002.5 35.0497C1002.67 35.2585 1002.79 35.4425 1002.88 35.6016H1002.99V34.3636H1004.45V42.169C1004.45 42.8253 1004.3 43.3639 1003.99 43.7848C1003.69 44.2057 1003.27 44.5173 1002.75 44.7195C1002.24 44.9216 1001.65 45.0227 1001 45.0227ZM1000.99 40.6527C1001.42 40.6527 1001.78 40.5533 1002.07 40.3544C1002.37 40.1522 1002.6 39.8639 1002.75 39.4893C1002.9 39.1115 1002.98 38.6591 1002.98 38.1321C1002.98 37.6184 1002.91 37.166 1002.75 36.7749C1002.6 36.3838 1002.38 36.0788 1002.08 35.8601C1001.79 35.638 1001.42 35.527 1000.99 35.527C1000.54 35.527 1000.17 35.643 999.87 35.875C999.572 36.1037 999.347 36.4152 999.194 36.8097C999.045 37.2041 998.97 37.6449 998.97 38.1321C998.97 38.6326 999.047 39.0717 999.199 39.4496C999.352 39.8274 999.577 40.1224 999.875 40.3345C1000.18 40.5466 1000.55 40.6527 1000.99 40.6527ZM1007.93 31.8182V42H1006.44V31.8182H1007.93ZM1009.93 42V34.3636H1011.42V42H1009.93ZM1010.68 33.1854C1010.42 33.1854 1010.2 33.0992 1010.01 32.9268C1009.83 32.7512 1009.74 32.5424 1009.74 32.3004C1009.74 32.0552 1009.83 31.8464 1010.01 31.674C1010.2 31.4983 1010.42 31.4105 1010.68 31.4105C1010.94 31.4105 1011.16 31.4983 1011.34 31.674C1011.53 31.8464 1011.62 32.0552 1011.62 32.3004C1011.62 32.5424 1011.53 32.7512 1011.34 32.9268C1011.16 33.0992 1010.94 33.1854 1010.68 33.1854ZM1019.14 36.228L1017.79 36.4666C1017.73 36.2943 1017.64 36.1302 1017.52 35.9744C1017.4 35.8187 1017.24 35.6911 1017.03 35.5916C1016.83 35.4922 1016.57 35.4425 1016.26 35.4425C1015.84 35.4425 1015.49 35.5369 1015.21 35.7259C1014.93 35.9115 1014.79 36.1518 1014.79 36.4467C1014.79 36.7019 1014.88 36.9074 1015.07 37.0632C1015.26 37.219 1015.56 37.3466 1015.99 37.446L1017.2 37.7244C1017.9 37.8868 1018.43 38.1371 1018.77 38.4751C1019.11 38.8132 1019.29 39.2524 1019.29 39.7926C1019.29 40.25 1019.15 40.6577 1018.89 41.0156C1018.63 41.3703 1018.26 41.6487 1017.79 41.8509C1017.32 42.053 1016.78 42.1541 1016.16 42.1541C1015.31 42.1541 1014.61 41.9718 1014.07 41.6072C1013.53 41.2393 1013.2 40.7173 1013.08 40.0412L1014.51 39.8224C1014.6 40.197 1014.79 40.4804 1015.07 40.6726C1015.34 40.8615 1015.71 40.956 1016.15 40.956C1016.64 40.956 1017.03 40.8549 1017.32 40.6527C1017.61 40.4472 1017.76 40.197 1017.76 39.902C1017.76 39.6634 1017.67 39.4628 1017.49 39.3004C1017.32 39.138 1017.05 39.0154 1016.68 38.9325L1015.39 38.6491C1014.68 38.4867 1014.15 38.2282 1013.81 37.8736C1013.47 37.5189 1013.3 37.0698 1013.3 36.5263C1013.3 36.0755 1013.43 35.6811 1013.68 35.343C1013.93 35.005 1014.28 34.7415 1014.72 34.5526C1015.17 34.3603 1015.68 34.2642 1016.25 34.2642C1017.07 34.2642 1017.72 34.4432 1018.2 34.8011C1018.67 35.1558 1018.99 35.6314 1019.14 36.228ZM1022.41 37.4659V42H1020.92V31.8182H1022.39V35.6065H1022.48C1022.66 35.1955 1022.93 34.8691 1023.3 34.6271C1023.67 34.3852 1024.15 34.2642 1024.74 34.2642C1025.27 34.2642 1025.73 34.3719 1026.12 34.5874C1026.51 34.8028 1026.82 35.1243 1027.03 35.5518C1027.25 35.9761 1027.36 36.5064 1027.36 37.1428V42H1025.87V37.3217C1025.87 36.7616 1025.73 36.3274 1025.44 36.0192C1025.15 35.7076 1024.75 35.5518 1024.24 35.5518C1023.89 35.5518 1023.57 35.6264 1023.29 35.7756C1023.02 35.9247 1022.8 36.1435 1022.64 36.4318C1022.49 36.7169 1022.41 37.0616 1022.41 37.4659ZM1033.48 36.9091C1033.48 35.6629 1033.64 34.5161 1033.97 33.4688C1034.3 32.4214 1034.78 31.4553 1035.41 30.5703H1036.77C1036.53 30.8984 1036.3 31.3011 1036.09 31.7784C1035.87 32.2557 1035.69 32.7794 1035.53 33.3494C1035.37 33.9162 1035.25 34.5045 1035.16 35.1143C1035.07 35.7209 1035.02 36.3191 1035.02 36.9091C1035.02 37.6979 1035.1 38.4967 1035.26 39.3054C1035.41 40.1141 1035.62 40.8648 1035.89 41.5575C1036.15 42.2502 1036.45 42.8153 1036.77 43.2528H1035.41C1034.78 42.3679 1034.3 41.4018 1033.97 40.3544C1033.64 39.3071 1033.48 38.1586 1033.48 36.9091ZM1045.01 31.8182H1046.55V38.5149C1046.55 39.2275 1046.38 39.8589 1046.05 40.4091C1045.71 40.956 1045.24 41.3868 1044.63 41.7017C1044.03 42.0133 1043.32 42.169 1042.5 42.169C1041.69 42.169 1040.98 42.0133 1040.37 41.7017C1039.77 41.3868 1039.3 40.956 1038.96 40.4091C1038.63 39.8589 1038.46 39.2275 1038.46 38.5149V31.8182H1039.99V38.3906C1039.99 38.8513 1040.1 39.2607 1040.3 39.6186C1040.5 39.9766 1040.79 40.2583 1041.17 40.4638C1041.54 40.666 1041.99 40.767 1042.5 40.767C1043.02 40.767 1043.46 40.666 1043.84 40.4638C1044.22 40.2583 1044.5 39.9766 1044.7 39.6186C1044.9 39.2607 1045.01 38.8513 1045.01 38.3906V31.8182ZM1054.33 34.4929C1054.28 34.0223 1054.06 33.6577 1053.68 33.3991C1053.29 33.1373 1052.81 33.0064 1052.23 33.0064C1051.81 33.0064 1051.45 33.0727 1051.14 33.2053C1050.84 33.3345 1050.6 33.5135 1050.43 33.7422C1050.27 33.9676 1050.18 34.2244 1050.18 34.5128C1050.18 34.7547 1050.24 34.9635 1050.35 35.1392C1050.47 35.3149 1050.62 35.4624 1050.8 35.5817C1050.99 35.6977 1051.2 35.7955 1051.41 35.875C1051.63 35.9512 1051.83 36.0142 1052.03 36.0639L1053.03 36.3224C1053.35 36.402 1053.68 36.5097 1054.03 36.6456C1054.37 36.7815 1054.68 36.9605 1054.98 37.1825C1055.27 37.4046 1055.5 37.6797 1055.68 38.0078C1055.86 38.3359 1055.95 38.7287 1055.95 39.1861C1055.95 39.7628 1055.81 40.2749 1055.51 40.7223C1055.21 41.1697 1054.78 41.5227 1054.22 41.7812C1053.66 42.0398 1052.98 42.169 1052.19 42.169C1051.42 42.169 1050.76 42.0481 1050.21 41.8061C1049.65 41.5642 1049.21 41.2211 1048.9 40.777C1048.59 40.3295 1048.41 39.7992 1048.38 39.1861H1049.92C1049.95 39.554 1050.07 39.8606 1050.28 40.1058C1050.49 40.3478 1050.76 40.5284 1051.09 40.6477C1051.42 40.7637 1051.78 40.8217 1052.18 40.8217C1052.61 40.8217 1053 40.7538 1053.33 40.6179C1053.68 40.4787 1053.94 40.2865 1054.14 40.0412C1054.34 39.7926 1054.43 39.5026 1054.43 39.1712C1054.43 38.8696 1054.35 38.6226 1054.17 38.4304C1054.01 38.2382 1053.78 38.0791 1053.48 37.9531C1053.2 37.8272 1052.87 37.7161 1052.5 37.62L1051.3 37.2919C1050.49 37.0698 1049.84 36.7434 1049.36 36.3125C1048.89 35.8816 1048.65 35.3116 1048.65 34.6023C1048.65 34.0156 1048.81 33.5036 1049.13 33.0661C1049.45 32.6286 1049.88 32.2888 1050.42 32.0469C1050.96 31.8016 1051.58 31.679 1052.26 31.679C1052.95 31.679 1053.56 31.8 1054.09 32.0419C1054.62 32.2839 1055.03 32.617 1055.34 33.0412C1055.64 33.4621 1055.8 33.946 1055.82 34.4929H1054.33ZM1060.53 36.9091C1060.53 38.1586 1060.37 39.3071 1060.04 40.3544C1059.71 41.4018 1059.23 42.3679 1058.6 43.2528H1057.24C1057.48 42.9247 1057.71 42.522 1057.92 42.0447C1058.14 41.5675 1058.32 41.0455 1058.48 40.4787C1058.64 39.9086 1058.76 39.3187 1058.85 38.7088C1058.94 38.099 1058.99 37.4991 1058.99 36.9091C1058.99 36.1236 1058.91 35.3265 1058.75 34.5178C1058.6 33.709 1058.39 32.9583 1058.12 32.2656C1057.86 31.5729 1057.56 31.0078 1057.24 30.5703H1058.6C1059.23 31.4553 1059.71 32.4214 1060.04 33.4688C1060.37 34.5161 1060.53 35.6629 1060.53 36.9091Z" fill="#4B5563"/>
<path d="M980 44.7841H1061.96V45.7386H980V44.7841Z" fill="#4B5563"/>
<path d="M1095.25 31.75H1087.38C1085.93 31.75 1084.75 32.9253 1084.75 34.375C1084.75 35.8247 1085.93 37 1087.38 37H1092.62C1094.07 37 1095.25 38.1753 1095.25 39.625C1095.25 41.0747 1094.07 42.25 1092.62 42.25H1084.75" stroke="#4B5563" stroke-width="1.5" stroke-linecap="round" stroke-linejoin="round"/>
<path d="M1089.75 44.25V29.75" stroke="#4B5563" stroke-width="1.5" stroke-linecap="round" stroke-linejoin="round"/>
<path d="M1113.67 31.8182H1115.21V38.5149C1115.21 39.2275 1115.04 39.8589 1114.71 40.4091C1114.37 40.956 1113.9 41.3868 1113.29 41.7017C1112.69 42.0133 1111.98 42.169 1111.16 42.169C1110.35 42.169 1109.64 42.0133 1109.03 41.7017C1108.43 41.3868 1107.96 40.956 1107.62 40.4091C1107.29 39.8589 1107.12 39.2275 1107.12 38.5149V31.8182H1108.65V38.3906C1108.65 38.8513 1108.76 39.2607 1108.96 39.6186C1109.16 39.9766 1109.45 40.2583 1109.83 40.4638C1110.2 40.666 1110.65 40.767 1111.16 40.767C1111.68 40.767 1112.12 40.666 1112.5 40.4638C1112.88 40.2583 1113.16 39.9766 1113.36 39.6186C1113.57 39.2607 1113.67 38.8513 1113.67 38.3906V31.8182ZM1122.99 34.4929C1122.94 34.0223 1122.72 33.6577 1122.34 33.3991C1121.95 33.1373 1121.47 33.0064 1120.89 33.0064C1120.47 33.0064 1120.11 33.0727 1119.8 33.2053C1119.5 33.3345 1119.26 33.5135 1119.09 33.7422C1118.93 33.9676 1118.84 34.2244 1118.84 34.5128C1118.84 34.7547 1118.9 34.9635 1119.01 35.1392C1119.13 35.3149 1119.28 35.4624 1119.46 35.5817C1119.65 35.6977 1119.86 35.7955 1120.07 35.875C1120.29 35.9512 1120.49 36.0142 1120.69 36.0639L1121.69 36.3224C1122.01 36.402 1122.34 36.5097 1122.69 36.6456C1123.03 36.7815 1123.34 36.9605 1123.64 37.1825C1123.93 37.4046 1124.16 37.6797 1124.34 38.0078C1124.52 38.3359 1124.61 38.7287 1124.61 39.1861C1124.61 39.7628 1124.47 40.2749 1124.17 40.7223C1123.87 41.1697 1123.44 41.5227 1122.88 41.7812C1122.32 42.0398 1121.64 42.169 1120.85 42.169C1120.08 42.169 1119.42 42.0481 1118.87 41.8061C1118.31 41.5642 1117.88 41.2211 1117.56 40.777C1117.25 40.3295 1117.07 39.7992 1117.04 39.1861H1118.58C1118.61 39.554 1118.73 39.8606 1118.94 40.1058C1119.15 40.3478 1119.42 40.5284 1119.75 40.6477C1120.08 40.7637 1120.44 40.8217 1120.84 40.8217C1121.27 40.8217 1121.66 40.7538 1121.99 40.6179C1122.34 40.4787 1122.6 40.2865 1122.8 40.0412C1123 39.7926 1123.09 39.5026 1123.09 39.1712C1123.09 38.8696 1123.01 38.6226 1122.84 38.4304C1122.67 38.2382 1122.44 38.0791 1122.14 37.9531C1121.86 37.8272 1121.53 37.7161 1121.16 37.62L1119.96 37.2919C1119.15 37.0698 1118.5 36.7434 1118.02 36.3125C1117.55 35.8816 1117.31 35.3116 1117.31 34.6023C1117.31 34.0156 1117.47 33.5036 1117.79 33.0661C1118.11 32.6286 1118.54 32.2888 1119.08 32.0469C1119.63 31.8016 1120.24 31.679 1120.92 31.679C1121.61 31.679 1122.22 31.8 1122.75 32.0419C1123.28 32.2839 1123.69 32.617 1124 33.0412C1124.3 33.4621 1124.46 33.946 1124.48 34.4929H1122.99ZM1129.75 42H1126.45V31.8182H1129.85C1130.85 31.8182 1131.71 32.022 1132.42 32.4297C1133.14 32.834 1133.69 33.4157 1134.07 34.1747C1134.45 34.9304 1134.64 35.8369 1134.64 36.8942C1134.64 37.9548 1134.45 38.8662 1134.06 39.6286C1133.68 40.3909 1133.12 40.9775 1132.39 41.3885C1131.66 41.7962 1130.78 42 1129.75 42ZM1127.99 40.6577H1129.66C1130.44 40.6577 1131.08 40.5118 1131.6 40.2202C1132.11 39.9252 1132.49 39.4993 1132.75 38.9425C1133 38.3823 1133.13 37.6996 1133.13 36.8942C1133.13 36.0954 1133 35.4176 1132.75 34.8608C1132.5 34.304 1132.12 33.8814 1131.62 33.593C1131.12 33.3047 1130.5 33.1605 1129.76 33.1605H1127.99V40.6577Z" fill="#4B5563"/>
<path d="M1106 44.7841H1135.43V45.7386H1106V44.7841Z" fill="#4B5563"/>
<path fill-rule="evenodd" clip-rule="evenodd" d="M1179 37C1179 41.45 1182.25 45.15 1186.5 45.9L1186.55 45.8599C1186.53 45.8566 1186.52 45.8533 1186.5 45.85V39.5H1184.25V37H1186.5V35C1186.5 32.75 1187.95 31.5 1190 31.5C1190.65 31.5 1191.35 31.6 1192 31.7V34H1190.85C1189.75 34 1189.5 34.55 1189.5 35.25V37H1191.9L1191.5 39.5H1189.5V45.85C1189.48 45.8533 1189.47 45.8566 1189.45 45.8599L1189.5 45.9C1193.75 45.15 1197 41.45 1197 37C1197 32.05 1192.95 28 1188 28C1183.05 28 1179 32.05 1179 37Z" fill="#4B5563"/>
<path fill-rule="evenodd" clip-rule="evenodd" d="M1234.66 34.0761C1234.67 34.226 1234.67 34.3758 1234.67 34.5257C1234.67 39.0705 1231.47 44.3171 1225.63 44.3171C1223.83 44.3171 1222.16 43.7447 1220.75 42.7704C1221 42.7976 1221.25 42.8181 1221.51 42.8181C1223 42.8181 1224.37 42.2661 1225.46 41.3394C1224.07 41.319 1222.89 40.3174 1222.49 38.9546C1222.68 38.9955 1222.88 39.016 1223.09 39.016C1223.38 39.016 1223.66 38.9752 1223.93 38.8934C1222.47 38.58 1221.37 37.19 1221.37 35.5207C1221.37 35.5002 1221.37 35.4934 1221.37 35.4797C1221.8 35.7318 1222.29 35.8885 1222.82 35.9089C1221.96 35.2889 1221.4 34.2328 1221.4 33.0404C1221.4 32.4135 1221.56 31.8207 1221.83 31.3097C1223.4 33.3947 1225.74 34.7642 1228.38 34.9073C1228.33 34.6552 1228.3 34.3896 1228.3 34.1238C1228.3 32.2228 1229.72 30.6829 1231.48 30.6829C1232.39 30.6829 1233.22 31.0986 1233.8 31.7663C1234.53 31.6164 1235.2 31.3302 1235.82 30.935C1235.58 31.7391 1235.08 32.4135 1234.42 32.8359C1235.06 32.7542 1235.68 32.5703 1236.25 32.2978C1235.82 32.986 1235.28 33.5923 1234.66 34.0761Z" fill="#4B5563"/>
<path d="M1268 28.2727C1265.63 28.2727 1265.33 28.2831 1264.4 28.3254C1263.47 28.368 1262.84 28.5151 1262.28 28.7309C1261.71 28.9538 1261.22 29.252 1260.74 29.7373C1260.25 30.2223 1259.95 30.7093 1259.73 31.2831C1259.51 31.8382 1259.37 32.4725 1259.33 33.4013C1259.28 34.3322 1259.27 34.6298 1259.27 37C1259.27 39.3702 1259.28 39.6667 1259.33 40.5976C1259.37 41.5267 1259.52 42.1609 1259.73 42.7158C1259.95 43.2898 1260.25 43.7767 1260.74 44.2618C1261.22 44.7472 1261.71 45.0462 1262.28 45.2691C1262.84 45.4849 1263.47 45.632 1264.4 45.6745C1265.33 45.7169 1265.63 45.7272 1268 45.7272C1270.37 45.7272 1270.67 45.7169 1271.6 45.6745C1272.53 45.632 1273.16 45.4849 1273.72 45.2691C1274.29 45.0462 1274.78 44.7472 1275.26 44.2618C1275.75 43.7767 1276.04 43.2898 1276.27 42.716C1276.48 42.1609 1276.63 41.5265 1276.67 40.5978C1276.72 39.6669 1276.73 39.3702 1276.73 37C1276.73 34.6298 1276.72 34.3323 1276.67 33.4014C1276.63 32.4723 1276.48 31.8382 1276.27 31.2833C1276.04 30.7093 1275.75 30.2223 1275.26 29.7373C1274.78 29.2518 1274.29 28.9536 1273.72 28.7309C1273.16 28.5151 1272.52 28.368 1271.6 28.3254C1270.66 28.2831 1270.37 28.2727 1268 28.2727H1268ZM1267.22 29.8454C1267.45 29.8451 1267.71 29.8454 1268 29.8454C1270.33 29.8454 1270.61 29.8538 1271.53 29.8956C1272.38 29.9345 1272.84 30.0767 1273.15 30.1962C1273.55 30.3543 1273.84 30.5434 1274.15 30.8489C1274.46 31.1543 1274.64 31.4453 1274.8 31.8525C1274.92 32.1598 1275.06 32.6216 1275.1 33.4725C1275.15 34.3925 1275.15 34.6689 1275.15 36.998C1275.15 39.3271 1275.15 39.6034 1275.1 40.5234C1275.06 41.3743 1274.92 41.8362 1274.8 42.1434C1274.64 42.5507 1274.46 42.8407 1274.15 43.146C1273.84 43.4514 1273.55 43.6405 1273.15 43.7987C1272.84 43.9187 1272.38 44.0605 1271.53 44.0994C1270.61 44.1412 1270.33 44.1503 1268 44.1503C1265.67 44.1503 1265.39 44.1412 1264.47 44.0994C1263.62 44.0602 1263.16 43.918 1262.85 43.7985C1262.45 43.6403 1262.16 43.4513 1261.85 43.1458C1261.54 42.8403 1261.36 42.5502 1261.2 42.1427C1261.08 41.8354 1260.93 41.3736 1260.9 40.5227C1260.85 39.6027 1260.85 39.3263 1260.85 36.9958C1260.85 34.6652 1260.85 34.3903 1260.9 33.4703C1260.94 32.6194 1261.08 32.1576 1261.2 31.85C1261.35 31.4427 1261.54 31.1518 1261.85 30.8463C1262.16 30.5409 1262.45 30.3518 1262.85 30.1933C1263.16 30.0733 1263.62 29.9314 1264.47 29.8923C1265.28 29.856 1265.59 29.8451 1267.22 29.8433V29.8454ZM1272.66 31.2945C1272.08 31.2945 1271.61 31.7631 1271.61 32.3414C1271.61 32.9196 1272.08 33.3887 1272.66 33.3887C1273.24 33.3887 1273.71 32.9196 1273.71 32.3414C1273.71 31.7633 1273.24 31.2942 1272.66 31.2942V31.2945ZM1268 32.5182C1265.53 32.5182 1263.52 34.5249 1263.52 37C1263.52 39.4751 1265.53 41.4809 1268 41.4809C1270.48 41.4809 1272.48 39.4751 1272.48 37C1272.48 34.5249 1270.48 32.5182 1268 32.5182H1268ZM1268 34.0909C1269.61 34.0909 1270.91 35.3932 1270.91 37C1270.91 38.6065 1269.61 39.9091 1268 39.9091C1266.39 39.9091 1265.09 38.6065 1265.09 37C1265.09 35.3932 1266.39 34.0909 1268 34.0909Z" fill="#4B5563"/>
</svg>
